<svg xmlns="http://www.w3.org/2000/svg" style="display: none;">
    <symbol id="logo-icon" viewBox="0 0 70 70" fill="none" >
        <mask id="mask0_359_289" style="mask-type:luminance" maskUnits="userSpaceOnUse" x="0" y="2" width="70" height="66">
        <path d="M70 2.57983H0V67.4201H70V2.57983Z" fill="white"/>
        </mask>
        <g mask="url(#mask0_359_289)">
        <path d="M29.4963 28.8083L35.172 35.602" stroke="#2F6AEC" stroke-width="2.40786" stroke-linecap="round"/>
        <path d="M7.73956 11.6953L20.9828 16.339L26.4005 24.0786" stroke="#2F6AEC" stroke-width="2.57985" stroke-linecap="round"/>
        <path d="M27.9484 28.9804C29.2782 28.9804 30.3563 27.9024 30.3563 26.5725C30.3563 25.2427 29.2782 24.1647 27.9484 24.1647C26.6186 24.1647 25.5405 25.2427 25.5405 26.5725C25.5405 27.9024 26.6186 28.9804 27.9484 28.9804Z" stroke="#2F6AEC" stroke-width="2.57985"/>
        <path d="M34.57 51.683C35.8524 51.683 36.8919 50.6435 36.8919 49.3612C36.8919 48.0788 35.8524 47.0393 34.57 47.0393C33.2877 47.0393 32.2482 48.0788 32.2482 49.3612C32.2482 50.6435 33.2877 51.683 34.57 51.683Z" stroke="#2F6AEC" stroke-width="2.57985"/>
        <path d="M52.801 60.0246C53.2759 60.0246 53.6609 59.6395 53.6609 59.1646C53.6609 58.6898 53.2759 58.3047 52.801 58.3047C52.3261 58.3047 51.941 58.6898 51.941 59.1646C51.941 59.6395 52.3261 60.0246 52.801 60.0246Z" stroke="#2F6AEC" stroke-width="4.64373"/>
        <path d="M37.0639 38.5259C37.8712 38.5259 38.5258 37.8713 38.5258 37.064C38.5258 36.2566 37.8712 35.6021 37.0639 35.6021C36.2566 35.6021 35.602 36.2566 35.602 37.064C35.602 37.8713 36.2566 38.5259 37.0639 38.5259Z" stroke="#2F6AEC" stroke-width="1.7199"/>
        <path d="M60.2826 50.5651C61.7548 50.5651 62.9484 49.3715 62.9484 47.8992C62.9484 46.427 61.7548 45.2334 60.2826 45.2334C58.8103 45.2334 57.6167 46.427 57.6167 47.8992C57.6167 49.3715 58.8103 50.5651 60.2826 50.5651Z" stroke="#2F6AEC" stroke-width="3.09582"/>
        <path d="M4.47175 13.9313C6.27651 13.9313 7.73956 12.4682 7.73956 10.6634C7.73956 8.85868 6.27651 7.39563 4.47175 7.39563C2.66699 7.39563 1.20393 8.85868 1.20393 10.6634C1.20393 12.4682 2.66699 13.9313 4.47175 13.9313Z" stroke="#2F6AEC" stroke-width="2.40786"/>
        <path d="M10.2334 41.0197L6.87961 44.6314" stroke="#2F6AEC" stroke-width="2.06388" stroke-linecap="round"/>
        <path d="M6.79362 41.1917L10.4054 44.5455" stroke="#2F6AEC" stroke-width="2.06388" stroke-linecap="round"/>
        <path d="M21.7568 63.8944H26.8305" stroke="#2F6AEC" stroke-width="2.06388" stroke-linecap="round"/>
        <path d="M35.43 3.61182L32.0762 7.22361" stroke="#2F6AEC" stroke-width="2.06388" stroke-linecap="round"/>
        <path d="M31.9902 3.78381L35.602 7.13762" stroke="#2F6AEC" stroke-width="2.06388" stroke-linecap="round"/>
        <path d="M62.4324 16.3391V21.0688M24.2506 61.5725V66.3023" stroke="#2F6AEC" stroke-width="2.06388" stroke-linecap="round"/>
        <path d="M59.8526 18.575H65.0983M10.2334 41.0197L6.87961 44.6315M6.79362 41.1917L10.4054 44.5455" stroke="#2F6AEC" stroke-width="2.06388" stroke-linecap="round"/>
        <path d="M2.57985 64.1524C3.24477 64.1524 3.78379 63.6134 3.78379 62.9484C3.78379 62.2835 3.24477 61.7445 2.57985 61.7445C1.91494 61.7445 1.37592 62.2835 1.37592 62.9484C1.37592 63.6134 1.91494 64.1524 2.57985 64.1524Z" fill="#2F6AEC"/>
        <path d="M68.7961 35.774C69.461 35.774 70 35.2349 70 34.57C70 33.9051 69.461 33.3661 68.7961 33.3661C68.1312 33.3661 67.5921 33.9051 67.5921 34.57C67.5921 35.2349 68.1312 35.774 68.7961 35.774Z" fill="#2F6AEC"/>
        <path d="M19.2629 18.5749L19.6069 16.769L18.317 15.1351H20.2088L21.0688 13.3292L21.9287 15.1351H23.9926L22.5307 16.769L22.9607 18.5749L21.0688 17.973L19.2629 18.5749Z" fill="#E46E7E" stroke="#2F6AEC" stroke-width="0.17199" stroke-linecap="round"/>
        <path d="M66.9042 66.5602C67.5691 66.5602 68.1081 66.0212 68.1081 65.3563C68.1081 64.6914 67.5691 64.1523 66.9042 64.1523C66.2393 64.1523 65.7002 64.6914 65.7002 65.3563C65.7002 66.0212 66.2393 66.5602 66.9042 66.5602Z" fill="#2F6AEC"/>
        <path d="M41.2776 19.7789C42.0375 19.7789 42.6536 19.1629 42.6536 18.403C42.6536 17.6431 42.0375 17.0271 41.2776 17.0271C40.5178 17.0271 39.9017 17.6431 39.9017 18.403C39.9017 19.1629 40.5178 19.7789 41.2776 19.7789Z" fill="#2F6AEC"/>
        <path d="M7.91155 26.4865C8.67145 26.4865 9.28747 25.8704 9.28747 25.1105C9.28747 24.3507 8.67145 23.7346 7.91155 23.7346C7.15165 23.7346 6.53563 24.3507 6.53563 25.1105C6.53563 25.8704 7.15165 26.4865 7.91155 26.4865Z" fill="#2F6AEC"/>
        <path d="M21.1548 13.0713C22.8645 13.0713 24.2506 14.4573 24.2506 16.1671C24.2506 17.8769 22.8645 19.2629 21.1548 19.2629C19.445 19.2629 18.059 17.8769 18.059 16.1671C18.059 14.4573 19.445 13.0713 21.1548 13.0713Z" stroke="#575886" stroke-width="0.34398"/>
        <path d="M36.8919 50.9091L50.2211 58.3046" stroke="#2F6AEC" stroke-width="2.40786" stroke-linecap="round"/>
        <path d="M58.2187 51.6831L54.3489 56.7568" stroke="#2F6AEC" stroke-width="2.40786" stroke-linecap="round"/>
        <path d="M39.2998 37.9238L57.2727 45.9214" stroke="#2F6AEC" stroke-width="2.40786" stroke-linecap="round"/>
        <path d="M36.5479 39.2137L35.086 46.6953" stroke="#2F6AEC" stroke-width="2.23587" stroke-linecap="round"/>
        </g>
    </symbol>


    <symbol id="telegram-icon" viewBox="0 0 40 40">
        <path d="M20 1.59998C9.84741 1.59998 1.59998 9.84741 1.59998 20C1.59998 30.1525 9.84741 38.4 20 38.4C30.1525 38.4 38.4 30.1525 38.4 20C38.4 9.84741 30.1525 1.59998 20 1.59998ZM20 3.19998C29.2878 3.19998 36.8 10.7121 36.8 20C36.8 29.2878 29.2878 36.8 20 36.8C10.7121 36.8 3.19998 29.2878 3.19998 20C3.19998 10.7121 10.7121 3.19998 20 3.19998ZM27.2703 11.2281C26.7231 11.2281 26.1082 11.3548 25.389 11.614C24.2722 12.0164 11.1366 17.5937 9.64216 18.2281C8.78776 18.5913 7.19685 19.2669 7.19685 20.8781C7.19685 21.9461 7.82266 22.71 9.05466 23.15C9.71706 23.386 11.2903 23.8628 12.2031 24.114C12.5903 24.2204 13.0018 24.275 13.425 24.275C14.253 24.275 15.0862 24.0687 15.739 23.7047C15.7334 23.8391 15.7371 23.9749 15.7531 24.1109C15.8515 24.9509 16.3695 25.741 17.1375 26.225C17.6399 26.5418 21.7434 29.2913 22.3562 29.7281C23.217 30.3433 24.1686 30.6687 25.1062 30.6687C26.8982 30.6687 27.4994 28.8185 27.789 27.9297C28.209 26.6393 29.7818 16.1457 29.9594 14.2953C30.0802 13.0273 29.5517 11.9831 28.5453 11.5015C28.1685 11.3199 27.7383 11.2281 27.2703 11.2281ZM27.2703 12.8281C27.4903 12.8281 27.6867 12.8645 27.8531 12.9453C28.2315 13.1269 28.424 13.5317 28.3656 14.1437C28.172 16.1621 26.6031 26.4072 26.2687 27.4344C25.9823 28.3128 25.6806 29.0687 25.1062 29.0687C24.5318 29.0687 23.9043 28.8674 23.2859 28.425C22.6675 27.9834 18.561 25.2295 17.9906 24.8703C17.4906 24.5551 16.9614 23.7694 17.7062 23.0094C18.3198 22.3838 22.9743 17.8663 23.3719 17.4687C23.6679 17.1719 23.5294 16.814 23.239 16.814C23.139 16.814 23.0193 16.8562 22.8953 16.9578C22.4089 17.3554 15.6278 21.893 15.0406 22.2578C14.6518 22.4994 14.0498 22.6734 13.425 22.6734C13.1586 22.6734 12.8889 22.6415 12.6297 22.5703C11.7273 22.3215 10.2001 21.8582 9.59373 21.6422C9.01053 21.4342 8.79841 21.2349 8.79841 20.8781C8.79841 20.3709 9.51433 20.0208 10.2687 19.7C11.0655 19.3616 24.8528 13.5067 25.9312 13.1187C26.4304 12.9379 26.8871 12.8281 27.2703 12.8281Z"/>  
    </symbol>

    <symbol id="whatsapp-icon" viewBox="0 0 40 40">
        <path d="M20 1.59998C9.8476 1.59998 1.59998 9.8476 1.59998 20C1.59998 23.2633 2.49493 26.3087 3.98748 28.9672L1.62966 37.3843C1.59199 37.519 1.59029 37.6613 1.62473 37.7968C1.65916 37.9324 1.72853 38.0565 1.82591 38.1569C1.92329 38.2573 2.04529 38.3304 2.17974 38.3689C2.31419 38.4075 2.45639 38.4101 2.59216 38.3765L11.3687 36.2015C13.9477 37.5783 16.874 38.4 20 38.4C30.1523 38.4 38.4 30.1523 38.4 20C38.4 9.8476 30.1523 1.59998 20 1.59998ZM20 3.19998C29.2876 3.19998 36.8 10.7123 36.8 20C36.8 29.2876 29.2876 36.8 20 36.8C17.0224 36.8 14.2337 36.0237 11.8094 34.6672C11.632 34.5681 11.4237 34.5402 11.2265 34.589L3.5406 36.4937L5.60154 29.1406C5.63103 29.0367 5.63917 28.9279 5.62548 28.8207C5.61178 28.7136 5.57653 28.6103 5.52185 28.5172C4.04853 26.0189 3.19998 23.1121 3.19998 20C3.19998 10.7123 10.7123 3.19998 20 3.19998ZM13.314 10.4C12.8012 10.4 12.0688 10.5908 11.4672 11.239C11.1058 11.6284 9.59998 13.0956 9.59998 15.675C9.59998 18.3642 11.4651 20.6847 11.6906 20.9828H11.6922V20.9844C11.6708 20.9562 11.9784 21.4017 12.389 21.9359C12.7997 22.4701 13.3739 23.1717 14.0953 23.9312C15.5381 25.4503 17.5666 27.2059 20.0844 28.2797C21.2438 28.7734 22.1585 29.0715 22.8515 29.289C24.1359 29.6923 25.3056 29.631 26.1844 29.5015C26.8421 29.4047 27.5655 29.0889 28.2812 28.6359C28.997 28.183 29.6984 27.6198 30.0078 26.764C30.2294 26.1506 30.342 25.5837 30.3828 25.1172C30.4032 24.8839 30.4057 24.6781 30.3906 24.4875C30.3754 24.2969 30.3916 24.1509 30.214 23.8594C29.8416 23.2478 29.4198 23.2319 28.9797 23.014C28.7351 22.893 28.0389 22.553 27.3406 22.2203C26.6431 21.8879 26.0391 21.5935 25.6672 21.4609C25.4322 21.3764 25.1452 21.2547 24.7312 21.3015C24.3172 21.3484 23.9083 21.6471 23.6703 22C23.4446 22.3344 22.5363 23.4067 22.2594 23.7219C22.2557 23.7196 22.2797 23.7307 22.1703 23.6765C21.8278 23.507 21.4089 23.3629 20.789 23.0359C20.1692 22.7089 19.3938 22.2261 18.5453 21.4781V21.4765C17.2824 20.3647 16.3978 18.9689 16.1187 18.5C16.1375 18.4776 16.1165 18.5047 16.1562 18.4656L16.1578 18.464C16.443 18.1831 16.6958 17.8476 16.9094 17.6015C17.2122 17.2527 17.3458 16.9451 17.4906 16.6578C17.7791 16.0851 17.6185 15.455 17.4515 15.1234V15.1219C17.4631 15.1448 17.3612 14.9201 17.2515 14.6609C17.1415 14.401 17.0013 14.064 16.8515 13.7047C16.552 12.986 16.2176 12.1799 16.0187 11.7078V11.7062C15.7844 11.1501 15.4675 10.7495 15.0531 10.5562C14.6387 10.3629 14.2726 10.4179 14.2578 10.4172H14.2562C13.9605 10.4035 13.636 10.4 13.314 10.4ZM13.314 12C13.6225 12 13.9265 12.0037 14.1812 12.0156C14.4432 12.0287 14.4269 12.0297 14.3765 12.0062C14.3253 11.9824 14.3948 11.9746 14.5437 12.3281C14.7385 12.7904 15.0745 13.5994 15.375 14.3203C15.5252 14.6807 15.6658 15.019 15.7781 15.2844C15.8904 15.5497 15.9512 15.6978 16.0219 15.839V15.8406L16.0234 15.8422C16.0926 15.9788 16.0865 15.8913 16.0625 15.939C15.8937 16.2741 15.8707 16.3564 15.7 16.5531C15.44 16.8526 15.1747 17.1867 15.0344 17.325C14.9115 17.4456 14.6899 17.6336 14.5515 18.0015C14.413 18.37 14.4776 18.8756 14.7 19.2531C14.996 19.7557 15.9715 21.3434 17.4875 22.6781C18.4422 23.5197 19.3316 24.0767 20.0422 24.4515C20.7527 24.8264 21.3314 25.0453 21.4609 25.1094C21.7684 25.2615 22.1045 25.3797 22.4953 25.3328C22.8861 25.2859 23.223 25.0488 23.4375 24.8062L23.439 24.8047C23.7245 24.4811 24.5727 23.5126 24.9797 22.9156C24.9969 22.9217 24.9913 22.917 25.1265 22.9656V22.9672H25.1281C25.1899 22.9892 25.9634 23.3354 26.6531 23.664C27.3428 23.9927 28.0428 24.3343 28.2703 24.4469C28.5986 24.6093 28.7537 24.7151 28.7937 24.7156C28.7964 24.786 28.7992 24.8623 28.789 24.9781C28.761 25.2994 28.6751 25.7442 28.5031 26.2203C28.4188 26.4534 27.98 26.9341 27.4265 27.2844C26.8731 27.6346 26.1994 27.882 25.95 27.9187C25.1999 28.0292 24.3093 28.0696 23.3312 27.7625C22.653 27.5496 21.8074 27.2741 20.7125 26.8078C18.4918 25.8607 16.6044 24.2492 15.2562 22.8297C14.5821 22.1199 14.042 21.4592 13.6578 20.9594C13.2743 20.4604 13.1068 20.2008 12.9672 20.0172L12.9656 20.0156C12.7177 19.6878 11.2 17.5767 11.2 15.675C11.2 13.6624 12.1348 12.8731 12.6406 12.3281C12.9062 12.042 13.1965 12 13.314 12Z"/>
    </symbol>

    <symbol viewBox="0 0 40 40" id="sidebar-icon">
        <path d="M0 20H40M0 32H20H40M0 8H20H40" stroke-width="4"/>
    </symbol>

    <symbol id="arrow" viewBox="0 0 26 24">
        <g>
        <path fill-rule="evenodd" clip-rule="evenodd" d="M4.59961 12C4.59961 11.503 5.00255 11.1 5.49961 11.1L18.2651 11.1L13.2758 6.34876C12.9175 6.00425 12.9063 5.43451 13.2509 5.07621C13.5954 4.71792 14.1651 4.70675 14.5234 5.05126L21.1234 11.3513C21.2999 11.5209 21.3996 11.7552 21.3996 12C21.3996 12.2448 21.2999 12.4791 21.1234 12.6488L14.5234 18.9488C14.1651 19.2933 13.5954 19.2821 13.2509 18.9238C12.9063 18.5655 12.9175 17.9958 13.2758 17.6513L18.2651 12.9L5.49961 12.9C5.00255 12.9 4.59961 12.4971 4.59961 12Z"/>
        </g>
        <defs>
        <filter id="filter0_d_139_8490" x="-3" y="0" width="32" height="32" filterUnits="userSpaceOnUse" color-interpolation-filters="sRGB">
        <feFlood flood-opacity="0" result="BackgroundImageFix"/>
        <feColorMatrix in="SourceAlpha" type="matrix" values="0 0 0 0 0 0 0 0 0 0 0 0 0 0 0 0 0 0 127 0" result="hardAlpha"/>
        <feOffset dy="4"/>
        <feGaussianBlur stdDeviation="2"/>
        <feComposite in2="hardAlpha" operator="out"/>
        <feColorMatrix type="matrix" values="0 0 0 0 0 0 0 0 0 0 0 0 0 0 0 0 0 0 0.25 0"/>
        <feBlend mode="normal" in2="BackgroundImageFix" result="effect1_dropShadow_139_8490"/>
        <feBlend mode="normal" in="SourceGraphic" in2="effect1_dropShadow_139_8490" result="shape"/>
        </filter>
        </defs>
    </symbol>
</svg>